# xmcd
# 
# Track frame offsets:
#     150
#     17527
#     36742
#     62382
# 
# Disc length: 1118
# 
# Revision: 0
# Processed by: cddbd v1.5.2PL0 Copyright (c) Steve Scherf et al.
# Submitted via: fre:ac v1.0.17
# 
DISCID=2b045c04
DTITLE=Terranova - Single
DYEAR=2000
DGENRE=Trip-Hop
TTITLE0=chase the blues (cameron mcvey mix)
TTITLE1=chase the blues (domecracker remix)
TTITLE2=chase the blues (psychonauts remix)
TTITLE3=chase the blues (original)
EXTD=
EXTT0=
EXTT1=
EXTT2=
EXTT3=
PLAYORDER=
